<?xml version="1.0" standalone="no"?>
<!DOCTYPE svg PUBLIC "-//W3C//DTD SVG 20010904//EN"
 "http://www.w3.org/TR/2001/REC-SVG-20010904/DTD/svg10.dtd">
<svg version="1.0" xmlns="http://www.w3.org/2000/svg"
 width="512.000000pt" height="512.000000pt" viewBox="0 0 512.000000 512.000000"
 preserveAspectRatio="xMidYMid meet">

<g transform="translate(0.000000,512.000000) scale(0.100000,-0.100000)"
fill="#000000" stroke="none">
<path d="M500 1821 l0 -1271 624 0 c360 0 667 4 725 10 503 52 791 341 768
770 -7 121 -25 200 -67 286 -64 131 -169 227 -310 285 l-81 33 38 20 c103 53
204 151 248 240 79 164 74 428 -12 589 -56 105 -177 202 -310 248 -145 50
-191 53 -930 56 l-693 4 0 -1270z m1224 824 c119 -25 201 -91 226 -181 8 -26
11 -76 8 -123 -6 -104 -35 -163 -102 -208 -87 -59 -115 -63 -473 -63 l-323 0
0 295 0 295 298 0 c221 0 315 -4 366 -15z m136 -992 c138 -56 200 -156 202
-322 0 -101 -7 -136 -43 -192 -34 -53 -82 -90 -160 -122 -52 -21 -70 -22 -426
-25 l-373 -3 0 346 0 346 373 -3 c357 -3 374 -4 427 -25z"/>
<path d="M3190 2795 l0 -125 515 0 515 0 0 125 0 125 -515 0 -515 0 0 -125z"/>
<path d="M3557 2430 c-149 -27 -321 -105 -432 -197 -205 -169 -320 -414 -332
-708 -7 -163 8 -279 53 -414 128 -385 443 -601 878 -601 404 0 679 169 819
504 20 49 37 92 37 97 0 5 -96 9 -220 9 l-219 0 -17 -35 c-23 -49 -108 -123
-180 -157 -120 -56 -296 -54 -434 5 -116 50 -197 190 -213 370 l-5 47 666 0
665 0 -6 143 c-18 408 -187 708 -485 857 -127 64 -205 82 -377 86 -82 1 -172
-1 -198 -6z m305 -389 c121 -37 220 -168 243 -324 l7 -47 -412 0 c-387 0 -411
1 -407 18 3 9 8 34 12 56 23 138 137 262 275 301 62 17 219 14 282 -4z"/>
</g>
</svg>
