<?xml version="1.0" standalone="no"?>
<!DOCTYPE svg PUBLIC "-//W3C//DTD SVG 20010904//EN"
 "http://www.w3.org/TR/2001/REC-SVG-20010904/DTD/svg10.dtd">
<svg version="1.0" xmlns="http://www.w3.org/2000/svg"
 width="512.000000pt" height="512.000000pt" viewBox="0 0 512.000000 512.000000"
 preserveAspectRatio="xMidYMid meet">

<g transform="translate(0.000000,512.000000) scale(0.100000,-0.100000)"
fill="#000000" stroke="none">
<path d="M1905 5109 c-488 -15 -700 -40 -894 -105 -205 -68 -368 -173 -545
-349 -284 -283 -400 -554 -435 -1020 -39 -499 -39 -1627 0 -2145 34 -468 149
-739 435 -1024 285 -286 556 -401 1024 -435 521 -38 1619 -38 2140 0 461 33
737 149 1015 424 292 290 410 564 444 1035 38 521 38 1619 0 2140 -34 468
-148 737 -434 1024 -284 285 -557 401 -1025 435 -377 28 -1173 37 -1725 20z
m1615 -439 c442 -29 597 -88 826 -315 212 -211 283 -368 313 -695 41 -435 41
-1765 0 -2200 -30 -323 -101 -484 -308 -691 -207 -207 -368 -278 -691 -308
-435 -41 -1765 -41 -2200 0 -223 20 -379 68 -511 154 -105 69 -292 261 -351
360 -141 239 -163 450 -163 1585 0 955 15 1202 85 1413 47 141 107 233 240
368 260 263 415 314 1040 339 282 11 1509 4 1720 -10z"/>
<path d="M3851 4134 c-59 -30 -98 -79 -112 -145 -31 -137 100 -275 240 -253
177 28 243 248 111 368 -68 61 -154 72 -239 30z"/>
<path d="M2420 3834 c-201 -26 -408 -102 -565 -207 -83 -56 -108 -77 -203
-170 -172 -170 -294 -396 -348 -647 -26 -119 -26 -381 0 -500 110 -512 494
-896 1006 -1006 119 -26 381 -26 500 0 259 56 459 164 646 350 193 193 304
394 360 656 26 119 26 381 0 500 -109 506 -484 887 -986 1001 -83 19 -331 33
-410 23z m400 -462 c267 -88 469 -293 555 -562 35 -109 45 -305 22 -415 -37
-172 -112 -311 -236 -436 -125 -124 -264 -199 -436 -236 -110 -23 -306 -13
-415 22 -273 87 -475 289 -566 565 -26 79 -28 96 -28 250 0 159 1 168 32 260
84 252 282 458 518 541 117 41 173 49 319 45 124 -3 151 -7 235 -34z"/>
</g>
</svg>
