<?xml version="1.0" standalone="no"?>
<!DOCTYPE svg PUBLIC "-//W3C//DTD SVG 20010904//EN"
 "http://www.w3.org/TR/2001/REC-SVG-20010904/DTD/svg10.dtd">
<svg version="1.0" xmlns="http://www.w3.org/2000/svg"
 width="512.000000pt" height="512.000000pt" viewBox="0 0 512.000000 512.000000"
 preserveAspectRatio="xMidYMid meet">

<g transform="translate(0.000000,512.000000) scale(0.100000,-0.100000)"
fill="#000000" stroke="none">
<path d="M2360 5114 c-627 -57 -1184 -318 -1617 -755 -402 -407 -641 -896
-725 -1484 -17 -118 -17 -512 0 -630 70 -490 262 -937 557 -1300 231 -283 526
-517 860 -681 250 -122 487 -196 775 -240 143 -22 529 -26 665 -6 315 46 557
120 824 253 501 248 902 649 1150 1150 124 248 197 477 243 760 31 194 31 564
0 758 -46 283 -119 512 -243 760 -129 261 -281 470 -491 678 -396 393 -874
631 -1438 718 -101 15 -463 28 -560 19z m440 -434 c731 -89 1356 -530 1676
-1185 145 -297 214 -597 214 -935 0 -338 -69 -638 -214 -935 -110 -223 -228
-388 -410 -571 -183 -182 -348 -300 -571 -410 -414 -202 -874 -263 -1337 -178
-72 13 -88 20 -88 34 0 17 235 1144 246 1183 5 15 14 11 62 -27 122 -93 235
-138 400 -156 298 -32 581 70 794 286 214 218 335 501 369 860 17 182 -6 401
-58 569 -145 464 -513 749 -1058 821 -167 22 -479 14 -620 -16 -541 -116 -905
-452 -1011 -935 -23 -105 -23 -324 0 -455 42 -239 165 -481 289 -567 36 -25
49 -28 117 -28 65 0 82 4 113 25 54 37 89 92 95 150 7 77 -5 115 -59 182 -90
113 -135 244 -146 429 -31 540 502 891 1197 788 351 -52 575 -220 668 -501 90
-272 58 -621 -81 -868 -54 -95 -171 -215 -253 -258 -172 -89 -397 -80 -502 21
-124 119 -151 437 -72 841 35 175 36 216 11 272 -31 68 -117 124 -192 124 -75
0 -153 -50 -190 -121 -10 -21 -33 -107 -49 -191 -48 -243 -481 -2293 -485
-2297 -2 -2 -55 24 -117 58 -472 257 -835 693 -1002 1202 -76 231 -106 422
-106 669 0 247 30 438 106 669 253 772 930 1333 1744 1446 116 16 405 19 520
5z"/>
</g>
</svg>
