<?xml version="1.0" standalone="no"?>
<!DOCTYPE svg PUBLIC "-//W3C//DTD SVG 20010904//EN"
 "http://www.w3.org/TR/2001/REC-SVG-20010904/DTD/svg10.dtd">
<svg version="1.0" xmlns="http://www.w3.org/2000/svg"
 width="512.000000pt" height="512.000000pt" viewBox="0 0 512.000000 512.000000"
 preserveAspectRatio="xMidYMid meet">

<g transform="translate(0.000000,512.000000) scale(0.100000,-0.100000)"
fill="#000000" stroke="none">
<path d="M4765 4686 c-38 -13 -470 -179 -960 -369 -490 -190 -1513 -587 -2275
-882 -761 -295 -1402 -549 -1424 -563 -122 -83 -137 -201 -34 -269 23 -16 267
-99 625 -213 479 -154 591 -186 608 -177 11 6 661 409 1445 896 1017 632 1440
889 1477 900 41 11 59 12 78 3 32 -15 32 -33 -2 -73 -15 -17 -571 -526 -1235
-1131 -664 -605 -1208 -1102 -1208 -1106 0 -4 -16 -196 -35 -427 -44 -526 -44
-505 -3 -551 54 -61 123 -79 193 -50 19 8 172 146 347 312 172 164 327 310
344 326 l30 28 576 -433 c317 -239 602 -446 634 -462 84 -40 192 -46 249 -13
49 29 97 98 124 180 31 95 791 3721 798 3808 10 138 -27 234 -108 276 -43 22
-161 17 -244 -10z"/>
</g>
</svg>
